<?xml version="1.0" standalone="no"?>
<!DOCTYPE svg PUBLIC "-//W3C//DTD SVG 20010904//EN"
 "http://www.w3.org/TR/2001/REC-SVG-20010904/DTD/svg10.dtd">
<svg version="1.0" xmlns="http://www.w3.org/2000/svg"
 width="500.000000pt" height="500.000000pt" viewBox="0 0 500.000000 500.000000"
 preserveAspectRatio="xMidYMid meet">
<metadata>
Created by potrace 1.14, written by Peter Selinger 2001-2017
</metadata>
<g transform="translate(0.000000,500.000000) scale(0.100000,-0.100000)"
fill="#000000" stroke="none">
<path d="M60 2515 l0 -2425 2425 0 2425 0 0 2425 0 2425 -2425 0 -2425 0 0
-2425z m2140 -562 c0 -479 -4 -855 -10 -908 -29 -262 -140 -437 -335 -530
-104 -49 -148 -61 -277 -75 -174 -18 -349 14 -493 88 -110 57 -272 231 -310
332 -4 11 45 46 190 134 108 65 197 117 199 115 1 -2 15 -26 31 -54 40 -69
112 -144 160 -166 27 -13 64 -19 113 -19 111 0 171 32 215 115 22 40 22 41 25
913 l3 872 244 0 245 0 0 -817z m860 232 l0 -585 485 0 485 0 0 585 0 585 245
0 245 0 0 -1150 0 -1150 -245 0 -245 0 0 350 0 350 -485 0 -485 0 0 -350 0
-350 -240 0 -240 0 0 1150 0 1150 240 0 240 0 0 -585z"/>
</g>
</svg>
