<svg id="visual" viewBox="0 0 900 600" width="900" height="600" xmlns="http://www.w3.org/2000/svg" xmlns:xlink="http://www.w3.org/1999/xlink" version="1.1"><path d="M0 49L10 50C20 51 40 53 60 57C80 61 100 67 120 68C140 69 160 65 180 64C200 63 220 65 240 64C260 63 280 59 300 58C320 57 340 59 360 59C380 59 400 57 420 57C440 57 460 59 480 59C500 59 520 57 540 57C560 57 580 59 600 59C620 59 640 57 660 55C680 53 700 51 720 52C740 53 760 57 780 60C800 63 820 65 840 67C860 69 880 71 890 72L900 73L900 0L890 0C880 0 860 0 840 0C820 0 800 0 780 0C760 0 740 0 720 0C700 0 680 0 660 0C640 0 620 0 600 0C580 0 560 0 540 0C520 0 500 0 480 0C460 0 440 0 420 0C400 0 380 0 360 0C340 0 320 0 300 0C280 0 260 0 240 0C220 0 200 0 180 0C160 0 140 0 120 0C100 0 80 0 60 0C40 0 20 0 10 0L0 0Z" fill="#a968ff"></path><path d="M0 121L10 125C20 129 40 137 60 141C80 145 100 145 120 145C140 145 160 145 180 147C200 149 220 153 240 152C260 151 280 145 300 139C320 133 340 127 360 125C380 123 400 125 420 129C440 133 460 139 480 140C500 141 520 137 540 138C560 139 580 145 600 146C620 147 640 143 660 138C680 133 700 127 720 125C740 123 760 125 780 128C800 131 820 135 840 136C860 137 880 135 890 134L900 133L900 71L890 70C880 69 860 67 840 65C820 63 800 61 780 58C760 55 740 51 720 50C700 49 680 51 660 53C640 55 620 57 600 57C580 57 560 55 540 55C520 55 500 57 480 57C460 57 440 55 420 55C400 55 380 57 360 57C340 57 320 55 300 56C280 57 260 61 240 62C220 63 200 61 180 62C160 63 140 67 120 66C100 65 80 59 60 55C40 51 20 49 10 48L0 47Z" fill="#974bff"></path><path d="M0 265L10 270C20 275 40 285 60 286C80 287 100 279 120 277C140 275 160 279 180 282C200 285 220 287 240 290C260 293 280 297 300 291C320 285 340 269 360 265C380 261 400 269 420 272C440 275 460 273 480 273C500 273 520 275 540 274C560 273 580 269 600 270C620 271 640 277 660 279C680 281 700 279 720 277C740 275 760 273 780 275C800 277 820 283 840 287C860 291 880 293 890 294L900 295L900 131L890 132C880 133 860 135 840 134C820 133 800 129 780 126C760 123 740 121 720 123C700 125 680 131 660 136C640 141 620 145 600 144C580 143 560 137 540 136C520 135 500 139 480 138C460 137 440 131 420 127C400 123 380 121 360 123C340 125 320 131 300 137C280 143 260 149 240 150C220 151 200 147 180 145C160 143 140 143 120 143C100 143 80 143 60 139C40 135 20 127 10 123L0 119Z" fill="#8326ff"></path><path d="M0 367L10 370C20 373 40 379 60 376C80 373 100 361 120 359C140 357 160 365 180 369C200 373 220 373 240 379C260 385 280 397 300 394C320 391 340 373 360 366C380 359 400 363 420 362C440 361 460 355 480 359C500 363 520 377 540 380C560 383 580 375 600 374C620 373 640 379 660 383C680 387 700 389 720 389C740 389 760 387 780 385C800 383 820 381 840 381C860 381 880 383 890 384L900 385L900 293L890 292C880 291 860 289 840 285C820 281 800 275 780 273C760 271 740 273 720 275C700 277 680 279 660 277C640 275 620 269 600 268C580 267 560 271 540 272C520 273 500 271 480 271C460 271 440 273 420 270C400 267 380 259 360 263C340 267 320 283 300 289C280 295 260 291 240 288C220 285 200 283 180 280C160 277 140 273 120 275C100 277 80 285 60 284C40 283 20 273 10 268L0 263Z" fill="#7100f1"></path><path d="M0 535L10 536C20 537 40 539 60 539C80 539 100 537 120 536C140 535 160 535 180 537C200 539 220 543 240 546C260 549 280 551 300 551C320 551 340 549 360 547C380 545 400 543 420 543C440 543 460 545 480 547C500 549 520 551 540 550C560 549 580 545 600 544C620 543 640 545 660 544C680 543 700 539 720 538C740 537 760 539 780 540C800 541 820 541 840 540C860 539 880 537 890 536L900 535L900 383L890 382C880 381 860 379 840 379C820 379 800 381 780 383C760 385 740 387 720 387C700 387 680 385 660 381C640 377 620 371 600 372C580 373 560 381 540 378C520 375 500 361 480 357C460 353 440 359 420 360C400 361 380 357 360 364C340 371 320 389 300 392C280 395 260 383 240 377C220 371 200 371 180 367C160 363 140 355 120 357C100 359 80 371 60 374C40 377 20 371 10 368L0 365Z" fill="#6400d5"></path><path d="M0 601L10 601C20 601 40 601 60 601C80 601 100 601 120 601C140 601 160 601 180 601C200 601 220 601 240 601C260 601 280 601 300 601C320 601 340 601 360 601C380 601 400 601 420 601C440 601 460 601 480 601C500 601 520 601 540 601C560 601 580 601 600 601C620 601 640 601 660 601C680 601 700 601 720 601C740 601 760 601 780 601C800 601 820 601 840 601C860 601 880 601 890 601L900 601L900 533L890 534C880 535 860 537 840 538C820 539 800 539 780 538C760 537 740 535 720 536C700 537 680 541 660 542C640 543 620 541 600 542C580 543 560 547 540 548C520 549 500 547 480 545C460 543 440 541 420 541C400 541 380 543 360 545C340 547 320 549 300 549C280 549 260 547 240 544C220 541 200 537 180 535C160 533 140 533 120 534C100 535 80 537 60 537C40 537 20 535 10 534L0 533Z" fill="#5800ba"></path></svg>